<svg id="SvgjsSvg1006" width="4256.87385826034px" height="5000px" xmlns="http://www.w3.org/2000/svg" version="1.1" xmlns:xlink="http://www.w3.org/1999/xlink" xmlns:svgjs="http://svgjs.com/svgjs" viewBox="0 0 284 333.578125"><defs id="SvgjsDefs1007"></defs><g id="SvgjsG1009" transform="rotate(0 142 130.7265625)"><svg width="284" viewBox="0 0 80.19300842285156 73.82799530029297" xmlns="http://www.w3.org/2000/svg" version="1.1" xmlns:xlink="http://www.w3.org/1999/xlink" xmlns:svgjs="http://svgjs.com/svgjs" preserveAspectRatio="none" height="261.453125" x="0" y="0"><g><svg data-color="1" xmlns="http://www.w3.org/2000/svg" xmlns:xlink="http://www.w3.org/1999/xlink" version="1.1" x="0px" y="0px" viewBox="9.397998809814453 12.339999198913574 80.19300842285156 73.82799530029297" enable-background="new 0 0 100 100" xml:space="preserve" width="80.19300842285156" height="73.82799530029297" fill="#ff6b21"><g><path d="M55.894,49.046c0,0.515,0,1.027,0,1.992c0,2.509,1.142,3.675,3.328,3.675c0.708,0,2.05,0,2.757,0   c2.606,0,4.379,2.119,4.379,4.375c0,0.386,0,1.611,0,2.318c0,2.509-1.137,4.021-3.795,4.021c-0.451,0-2.682,0-3.196,0   c-2.796,0-4.253-1.278-4.253-3.889c0-0.386,0-1.515,0-2.158c0-2.059-1.479-3.41-3.281-3.41c-0.579,0-4.052,0-4.759,0   c-2.38,0-2.959,1.608-2.959,3.41c0,0.644,0,3.284,0,4.249c0,2.252,1.351,3.024,3.088,3.024c0.836,0,2.03,0,2.931,0   c3.31,0,4.9,1.452,4.9,3.77c0,0.772,0,0.379,0,1.601c0,2.634,1.498,3.632,3.881,3.632c1.865,0,4.272,0,4.915,0   c2.433,0,3.622-1.284,3.622-3.479c0-0.901,0-1.024,0-1.796c0-3.023,1.676-3.988,4.893-3.988c0.9,0,2.934,0,3.384,0   c1.866,0,2.725-1.158,2.725-2.702c0-1.543,0-4.181,0-6.24c0-2.058-1.158-3.023-3.409-3.023c-0.966,0-2.896,0-4.054,0   c-2.419,0-4.588-1.829-4.588-5.21c0-1.094,0-0.898,0-1.992c0-2.509-1.142-3.675-3.329-3.675c-0.708,0-2.049,0-2.757,0   c-2.606,0-4.379-2.118-4.379-4.374c0-0.386,0-1.611,0-2.318c0-2.509,1.138-4.021,3.796-4.021c0.45,0,2.681,0,3.195,0   c2.796,0,4.254,1.278,4.254,3.889c0,0.386,0,1.515,0,2.158c0,2.059,1.479,3.409,3.281,3.409c0.579,0,4.05,0,4.758,0   c2.38,0,2.959-1.608,2.959-3.409c0-0.644,0-3.284,0-4.249c0-2.251-1.351-3.023-3.088-3.023c-0.836,0-2.03,0-2.931,0   c-3.31,0-4.9-1.452-4.9-3.77c0-0.772,0-0.293,0-1.516c0-2.633-1.425-3.717-3.808-3.717c-1.865,0-4.345,0-4.988,0   c-2.433,0-3.622,1.284-3.622,3.48c0,0.9,0,1.023,0,1.795c0,3.023-1.676,3.988-4.893,3.988c-0.9,0-2.935,0-3.385,0   c-1.865,0-2.724,1.158-2.724,2.702s0,4.181,0,6.24s1.157,3.024,3.41,3.024c0.964,0,2.894,0,4.052,0   C53.725,43.836,55.894,45.665,55.894,49.046z"></path><path d="M86.07,54.482c1.945,0,3.521-1.577,3.521-3.521v-2.688c0-1.945-1.576-3.522-3.521-3.522h-2.688   c-1.944,0-3.521,1.577-3.521,3.522v2.688c0,1.945,1.577,3.521,3.521,3.521H86.07z"></path><path d="M36.547,31.871c1.158,0,2.042,0,3.008,0c2.251,0,3.409-0.965,3.409-3.023c0-0.569,0-1.649,0-1.974   c0.113-3.194,2.224-4.658,4.578-4.658c1.157,0,2.043,0,3.008,0c2.253,0,3.41-0.965,3.41-3.023s0-2.607,0-4.151   s-0.858-2.702-2.724-2.702c-0.45,0-4.795,0-5.695,0c-1.846,0-2.631,0.855-2.631,2.782c0,0.708,0,2.047,0,2.434   c0,2.195-1.681,4.253-4.171,4.364c-1.486,0-3.597,0-4.194,0c-1.845,0-2.631,0.855-2.631,2.782c0,0.708,0,2.123,0,2.508   c0,2.256-1.771,4.375-4.379,4.375c-0.707,0-2.049,0-2.757,0c-2.188,0-3.329,1.165-3.329,3.674c0,1.093,0,1.978,0,3.071   c0,3.381-2.168,5.21-4.588,5.21c-1.158,0-3.088,0-4.054,0c-2.251,0-3.409,0.965-3.409,3.023c0,0.267,0,6.5,0,6.766   c0,2.059,1.158,3.023,3.409,3.023c0.966,0,2.896,0,4.054,0c2.42,0,4.588,1.049,4.588,4.431c0,1.093,0,1.318,0,2.412   c0,2.509,1.142,3.674,3.329,3.674c0.708,0,2.05,0,2.757,0c2.607,0,4.379,2.119,4.379,4.375c0,0.386,0,1.831,0,2.539   c0,1.927,0.786,2.782,2.631,2.782c0.6,0,2.726,0,4.213,0l-0.021,0.024c2.491,0.11,4.171,2.169,4.171,4.364c0,0.386,0,1.726,0,2.433   c0,1.927,0.785,2.782,2.631,2.782c0.9,0,5.244,0,5.694,0c1.866,0,2.725-1.158,2.725-2.702s0-2.092,0-4.151   s-1.158-3.024-3.409-3.024c-0.965,0-1.851,0-3.009,0c-2.348,0-4.453-1.457-4.576-4.633c0-0.379,0-1.372,0-2.053   c0-2.059-1.158-3.023-3.409-3.023c-0.966,0-1.85,0-3.008,0c-2.421,0-4.59-1.828-4.59-5.209c0-0.515,0-0.667,0-1.633   c0-2.509,1.143-3.674,3.33-3.674c0.708,0,2.049,0,2.756,0c2.607,0,4.38-2.119,4.38-4.375c0-0.255,0-3.236,0-3.491   c0-2.256-1.772-4.375-4.38-4.375c-0.707,0-2.048,0-2.756,0c-2.188,0-3.33-1.166-3.33-3.674c0-0.965,0-2.845,0-3.36   C31.957,33.411,34.126,31.871,36.547,31.871z"></path></g></svg></g><defs id="SvgjsDefs1008"></defs></svg></g><g id="SvgjsG1011" transform="rotate(0 141.9921875 315.015625)"><svg xmlns="http://www.w3.org/2000/svg" xmlns:xlink="http://www.w3.org/1999/xlink" width="269.546875" viewBox="1.2000000476837158 14.630000114440918 269.55999755859375 31.139999389648438" overflow="visible" style="overflow: visible;" transform="" version="1.1" xmlns:svgjs="http://svgjs.com/svgjs" preserveAspectRatio="none" height="31.125" x="7.21875" y="299.453125" fill="#000000" stroke="none"><path stroke="none" fill="#ff6b21" d="M21.85 24.70L19.96 27.21L19.96 27.21Q19.64 27.60 19.34 27.83L19.34 27.83L19.34 27.83Q19.04 28.06 18.49 28.06L18.49 28.06L18.49 28.06Q17.96 28.06 17.54 27.81L17.54 27.81L17.54 27.81Q17.11 27.55 16.58 27.24L16.58 27.24L16.58 27.24Q16.05 26.93 15.34 26.68L15.34 26.68L15.34 26.68Q14.63 26.43 13.57 26.43L13.57 26.43L13.57 26.43Q12.26 26.43 11.30 26.91L11.30 26.91L11.30 26.91Q10.35 27.39 9.73 28.29L9.73 28.29L9.73 28.29Q9.11 29.19 8.81 30.49L8.81 30.49L8.81 30.49Q8.51 31.79 8.51 33.42L8.51 33.42L8.51 33.42Q8.51 36.85 9.83 38.69L9.83 38.69L9.83 38.69Q11.15 40.53 13.48 40.53L13.48 40.53L13.48 40.53Q14.72 40.53 15.44 40.22L15.44 40.22L15.44 40.22Q16.17 39.91 16.68 39.53L16.68 39.53L16.68 39.53Q17.18 39.15 17.61 38.82L17.61 38.82L17.61 38.82Q18.03 38.50 18.68 38.50L18.68 38.50L18.68 38.50Q19.53 38.50 19.96 39.12L19.96 39.12L22.03 41.68L22.03 41.68Q20.93 42.94 19.71 43.73L19.71 43.73L19.71 43.73Q18.49 44.53 17.22 44.98L17.22 44.98L17.22 44.98Q15.94 45.43 14.65 45.60L14.65 45.60L14.65 45.60Q13.36 45.77 12.14 45.77L12.14 45.77L12.14 45.77Q9.96 45.77 7.97 44.94L7.97 44.94L7.97 44.94Q5.98 44.11 4.47 42.54L4.47 42.54L4.47 42.54Q2.97 40.96 2.08 38.66L2.08 38.66L2.08 38.66Q1.20 36.36 1.20 33.42L1.20 33.42L1.20 33.42Q1.20 30.84 1.97 28.60L1.97 28.60L1.97 28.60Q2.74 26.36 4.24 24.71L4.24 24.71L4.24 24.71Q5.75 23.07 7.97 22.13L7.97 22.13L7.97 22.13Q10.19 21.18 13.11 21.18L13.11 21.18L13.11 21.18Q15.92 21.18 18.03 22.08L18.03 22.08L18.03 22.08Q20.15 22.98 21.85 24.70L21.85 24.70ZM24.66 21.55L31.79 21.55L31.79 36.69L31.79 36.69Q31.79 38.46 32.59 39.42L32.59 39.42L32.59 39.42Q33.40 40.39 34.96 40.39L34.96 40.39L34.96 40.39Q36.13 40.39 37.16 39.91L37.16 39.91L37.16 39.91Q38.18 39.42 39.15 38.55L39.15 38.55L39.15 21.55L46.28 21.55L46.28 45.40L41.86 45.40L41.86 45.40Q40.53 45.40 40.11 44.21L40.11 44.21L39.67 42.83L39.67 42.83Q38.98 43.49 38.25 44.03L38.25 44.03L38.25 44.03Q37.51 44.57 36.67 44.95L36.67 44.95L36.67 44.95Q35.83 45.33 34.87 45.55L34.87 45.55L34.87 45.55Q33.90 45.77 32.75 45.77L32.75 45.77L32.75 45.77Q30.80 45.77 29.29 45.09L29.29 45.09L29.29 45.09Q27.78 44.41 26.75 43.19L26.75 43.19L26.75 43.19Q25.71 41.98 25.18 40.32L25.18 40.32L25.18 40.32Q24.66 38.66 24.66 36.69L24.66 36.69L24.66 21.55ZM67.99 24.27L66.38 26.77L66.38 26.77Q66.10 27.21 65.79 27.39L65.79 27.39L65.79 27.39Q65.48 27.58 65.00 27.58L65.00 27.58L65.00 27.58Q64.49 27.58 63.99 27.36L63.99 27.36L63.99 27.36Q63.48 27.14 62.89 26.89L62.89 26.89L62.89 26.89Q62.31 26.63 61.57 26.42L61.57 26.42L61.57 26.42Q60.84 26.20 59.89 26.20L59.89 26.20L59.89 26.20Q58.54 26.20 57.81 26.71L57.81 26.71L57.81 26.71Q57.09 27.23 57.09 28.15L57.09 28.15L57.09 28.15Q57.09 28.82 57.56 29.26L57.56 29.26L57.56 29.26Q58.03 29.69 58.81 30.03L58.81 30.03L58.81 30.03Q59.59 30.36 60.58 30.66L60.58 30.66L60.58 30.66Q61.57 30.96 62.61 31.33L62.61 31.33L62.61 31.33Q63.64 31.69 64.63 32.19L64.63 32.19L64.63 32.19Q65.62 32.68 66.40 33.41L66.40 33.41L66.40 33.41Q67.18 34.13 67.65 35.17L67.65 35.17L67.65 35.17Q68.13 36.20 68.13 37.65L68.13 37.65L68.13 37.65Q68.13 39.42 67.48 40.92L67.48 40.92L67.48 40.92Q66.84 42.41 65.56 43.49L65.56 43.49L65.56 43.49Q64.28 44.57 62.41 45.17L62.41 45.17L62.41 45.17Q60.54 45.77 58.10 45.77L58.10 45.77L58.10 45.77Q56.88 45.77 55.66 45.54L55.66 45.54L55.66 45.54Q54.44 45.31 53.30 44.92L53.30 44.92L53.30 44.92Q52.16 44.53 51.20 43.99L51.20 43.99L51.20 43.99Q50.23 43.45 49.54 42.83L49.54 42.83L51.20 40.20L51.20 40.20Q51.50 39.74 51.91 39.48L51.91 39.48L51.91 39.48Q52.33 39.22 52.99 39.22L52.99 39.22L52.99 39.22Q53.61 39.22 54.11 39.49L54.11 39.49L54.11 39.49Q54.60 39.77 55.18 40.09L55.18 40.09L55.18 40.09Q55.75 40.41 56.52 40.69L56.52 40.69L56.52 40.69Q57.29 40.96 58.47 40.96L58.47 40.96L58.47 40.96Q59.29 40.96 59.87 40.79L59.87 40.79L59.87 40.79Q60.44 40.62 60.79 40.32L60.79 40.32L60.79 40.32Q61.13 40.02 61.30 39.65L61.30 39.65L61.30 39.65Q61.46 39.28 61.46 38.89L61.46 38.89L61.46 38.89Q61.46 38.18 60.97 37.72L60.97 37.72L60.97 37.72Q60.49 37.26 59.71 36.93L59.71 36.93L59.71 36.93Q58.93 36.59 57.93 36.31L57.93 36.31L57.93 36.31Q56.93 36.02 55.89 35.65L55.89 35.65L55.89 35.65Q54.86 35.28 53.85 34.76L53.85 34.76L53.85 34.76Q52.85 34.25 52.07 33.45L52.07 33.45L52.07 33.45Q51.29 32.66 50.81 31.51L50.81 31.51L50.81 31.51Q50.32 30.36 50.32 28.73L50.32 28.73L50.32 28.73Q50.32 27.21 50.91 25.84L50.91 25.84L50.91 25.84Q51.50 24.47 52.67 23.44L52.67 23.44L52.67 23.44Q53.84 22.40 55.61 21.79L55.61 21.79L55.61 21.79Q57.39 21.18 59.75 21.18L59.75 21.18L59.75 21.18Q61.04 21.18 62.25 21.41L62.25 21.41L62.25 21.41Q63.46 21.64 64.52 22.06L64.52 22.06L64.52 22.06Q65.57 22.47 66.45 23.03L66.45 23.03L66.45 23.03Q67.32 23.60 67.99 24.27L67.99 24.27ZM82.25 21.18L82.25 21.18L82.25 21.18Q84.62 21.18 86.58 21.92L86.58 21.92L86.58 21.92Q88.55 22.66 89.96 24.06L89.96 24.06L89.96 24.06Q91.38 25.46 92.17 27.50L92.17 27.50L92.17 27.50Q92.97 29.53 92.97 32.11L92.97 32.11L92.97 32.11Q92.97 32.91 92.90 33.42L92.90 33.42L92.90 33.42Q92.83 33.92 92.64 34.22L92.64 34.22L92.64 34.22Q92.46 34.52 92.15 34.64L92.15 34.64L92.15 34.64Q91.84 34.75 91.36 34.75L91.36 34.75L77.60 34.75L77.60 34.75Q77.95 37.74 79.42 39.09L79.42 39.09L79.42 39.09Q80.89 40.43 83.21 40.43L83.21 40.43L83.21 40.43Q84.46 40.43 85.35 40.13L85.35 40.13L85.35 40.13Q86.25 39.84 86.95 39.47L86.95 39.47L86.95 39.47Q87.65 39.10 88.24 38.80L88.24 38.80L88.24 38.80Q88.83 38.50 89.47 38.50L89.47 38.50L89.47 38.50Q90.32 38.50 90.76 39.12L90.76 39.12L92.83 41.68L92.83 41.68Q91.72 42.94 90.45 43.73L90.45 43.73L90.45 43.73Q89.17 44.53 87.83 44.98L87.83 44.98L87.83 44.98Q86.48 45.43 85.13 45.60L85.13 45.60L85.13 45.60Q83.79 45.77 82.57 45.77L82.57 45.77L82.57 45.77Q80.06 45.77 77.87 44.95L77.87 44.95L77.87 44.95Q75.67 44.14 74.03 42.53L74.03 42.53L74.03 42.53Q72.38 40.92 71.43 38.52L71.43 38.52L71.43 38.52Q70.47 36.13 70.47 32.96L70.47 32.96L70.47 32.96Q70.47 30.57 71.29 28.43L71.29 28.43L71.29 28.43Q72.10 26.29 73.63 24.68L73.63 24.68L73.63 24.68Q75.16 23.07 77.34 22.13L77.34 22.13L77.34 22.13Q79.51 21.18 82.25 21.18ZM82.39 26.11L82.39 26.11L82.39 26.11Q80.34 26.11 79.19 27.27L79.19 27.27L79.19 27.27Q78.04 28.43 77.67 30.61L77.67 30.61L86.57 30.61L86.57 30.61Q86.57 29.76 86.35 28.96L86.35 28.96L86.35 28.96Q86.13 28.15 85.64 27.52L85.64 27.52L85.64 27.52Q85.15 26.89 84.34 26.50L84.34 26.50L84.34 26.50Q83.54 26.11 82.39 26.11ZM125.03 24.70L123.14 27.21L123.14 27.21Q122.82 27.60 122.52 27.83L122.52 27.83L122.52 27.83Q122.22 28.06 121.67 28.06L121.67 28.06L121.67 28.06Q121.14 28.06 120.72 27.81L120.72 27.81L120.72 27.81Q120.29 27.55 119.76 27.24L119.76 27.24L119.76 27.24Q119.23 26.93 118.52 26.68L118.52 26.68L118.52 26.68Q117.81 26.43 116.75 26.43L116.75 26.43L116.75 26.43Q115.44 26.43 114.48 26.91L114.48 26.91L114.48 26.91Q113.53 27.39 112.91 28.29L112.91 28.29L112.91 28.29Q112.29 29.19 111.99 30.49L111.99 30.49L111.99 30.49Q111.69 31.79 111.69 33.42L111.69 33.42L111.69 33.42Q111.69 36.85 113.01 38.69L113.01 38.69L113.01 38.69Q114.33 40.53 116.66 40.53L116.66 40.53L116.66 40.53Q117.90 40.53 118.62 40.22L118.62 40.22L118.62 40.22Q119.35 39.91 119.85 39.53L119.85 39.53L119.85 39.53Q120.36 39.15 120.78 38.82L120.78 38.82L120.78 38.82Q121.21 38.50 121.85 38.50L121.85 38.50L121.85 38.50Q122.70 38.50 123.14 39.12L123.14 39.12L125.21 41.68L125.21 41.68Q124.11 42.94 122.89 43.73L122.89 43.73L122.89 43.73Q121.67 44.53 120.39 44.98L120.39 44.98L120.39 44.98Q119.12 45.43 117.83 45.60L117.83 45.60L117.83 45.60Q116.54 45.77 115.32 45.77L115.32 45.77L115.32 45.77Q113.14 45.77 111.15 44.94L111.15 44.94L111.15 44.94Q109.16 44.11 107.65 42.54L107.65 42.54L107.65 42.54Q106.14 40.96 105.26 38.66L105.26 38.66L105.26 38.66Q104.37 36.36 104.37 33.42L104.37 33.42L104.37 33.42Q104.37 30.84 105.14 28.60L105.14 28.60L105.14 28.60Q105.91 26.36 107.42 24.71L107.42 24.71L107.42 24.71Q108.93 23.07 111.15 22.13L111.15 22.13L111.15 22.13Q113.37 21.18 116.29 21.18L116.29 21.18L116.29 21.18Q119.09 21.18 121.21 22.08L121.21 22.08L121.21 22.08Q123.33 22.98 125.03 24.70L125.03 24.70ZM138.92 21.18L138.92 21.18L138.92 21.18Q141.63 21.18 143.86 22.03L143.86 22.03L143.86 22.03Q146.10 22.89 147.69 24.47L147.69 24.47L147.69 24.47Q149.29 26.06 150.18 28.32L150.18 28.32L150.18 28.32Q151.06 30.59 151.06 33.42L151.06 33.42L151.06 33.42Q151.06 36.27 150.18 38.56L150.18 38.56L150.18 38.56Q149.29 40.85 147.69 42.45L147.69 42.45L147.69 42.45Q146.10 44.05 143.86 44.91L143.86 44.91L143.86 44.91Q141.63 45.77 138.92 45.77L138.92 45.77L138.92 45.77Q136.18 45.77 133.94 44.91L133.94 44.91L133.94 44.91Q131.70 44.05 130.08 42.45L130.08 42.45L130.08 42.45Q128.45 40.85 127.57 38.56L127.57 38.56L127.57 38.56Q126.68 36.27 126.68 33.42L126.68 33.42L126.68 33.42Q126.68 30.59 127.57 28.32L127.57 28.32L127.57 28.32Q128.45 26.06 130.08 24.47L130.08 24.47L130.08 24.47Q131.70 22.89 133.94 22.03L133.94 22.03L133.94 22.03Q136.18 21.18 138.92 21.18ZM138.92 40.48L138.92 40.48L138.92 40.48Q141.38 40.48 142.54 38.74L142.54 38.74L142.54 38.74Q143.70 37.01 143.70 33.47L143.70 33.47L143.70 33.47Q143.70 29.92 142.54 28.20L142.54 28.20L142.54 28.20Q141.38 26.47 138.92 26.47L138.92 26.47L138.92 26.47Q136.39 26.47 135.22 28.20L135.22 28.20L135.22 28.20Q134.04 29.92 134.04 33.47L134.04 33.47L134.04 33.47Q134.04 37.01 135.22 38.74L135.22 38.74L135.22 38.74Q136.39 40.48 138.92 40.48ZM162.10 45.40L154.97 45.40L154.97 21.55L159.39 21.55L159.39 21.55Q160.06 21.55 160.51 21.85L160.51 21.85L160.51 21.85Q160.95 22.15 161.14 22.75L161.14 22.75L161.55 24.13L161.55 24.13Q162.24 23.48 162.98 22.93L162.98 22.93L162.98 22.93Q163.71 22.38 164.55 22.00L164.55 22.00L164.55 22.00Q165.39 21.62 166.37 21.40L166.37 21.40L166.37 21.40Q167.35 21.18 168.50 21.18L168.50 21.18L168.50 21.18Q170.45 21.18 171.96 21.86L171.96 21.86L171.96 21.86Q173.47 22.54 174.50 23.75L174.50 23.75L174.50 23.75Q175.54 24.96 176.06 26.62L176.06 26.62L176.06 26.62Q176.59 28.29 176.59 30.25L176.59 30.25L176.59 45.40L169.46 45.40L169.46 30.25L169.46 30.25Q169.46 28.50 168.66 27.52L168.66 27.52L168.66 27.52Q167.85 26.54 166.29 26.54L166.29 26.54L166.29 26.54Q165.12 26.54 164.08 27.05L164.08 27.05L164.08 27.05Q163.05 27.55 162.10 28.41L162.10 28.41L162.10 45.40ZM188.78 45.40L181.65 45.40L181.65 21.55L186.07 21.55L186.07 21.55Q186.74 21.55 187.19 21.85L187.19 21.85L187.19 21.85Q187.63 22.15 187.82 22.75L187.82 22.75L188.23 24.13L188.23 24.13Q188.92 23.48 189.66 22.93L189.66 22.93L189.66 22.93Q190.39 22.38 191.23 22.00L191.23 22.00L191.23 22.00Q192.07 21.62 193.05 21.40L193.05 21.40L193.05 21.40Q194.03 21.18 195.18 21.18L195.18 21.18L195.18 21.18Q197.13 21.18 198.64 21.86L198.64 21.86L198.64 21.86Q200.15 22.54 201.18 23.75L201.18 23.75L201.18 23.75Q202.22 24.96 202.75 26.62L202.75 26.62L202.75 26.62Q203.27 28.29 203.27 30.25L203.27 30.25L203.27 45.40L196.14 45.40L196.14 30.25L196.14 30.25Q196.14 28.50 195.34 27.52L195.34 27.52L195.34 27.52Q194.53 26.54 192.97 26.54L192.97 26.54L192.97 26.54Q191.80 26.54 190.76 27.05L190.76 27.05L190.76 27.05Q189.73 27.55 188.78 28.41L188.78 28.41L188.78 45.40ZM218.55 21.18L218.55 21.18L218.55 21.18Q220.92 21.18 222.88 21.92L222.88 21.92L222.88 21.92Q224.85 22.66 226.26 24.06L226.26 24.06L226.26 24.06Q227.68 25.46 228.47 27.50L228.47 27.50L228.47 27.50Q229.26 29.53 229.26 32.11L229.26 32.11L229.26 32.11Q229.26 32.91 229.20 33.42L229.20 33.42L229.20 33.42Q229.13 33.92 228.94 34.22L228.94 34.22L228.94 34.22Q228.76 34.52 228.45 34.64L228.45 34.64L228.45 34.64Q228.14 34.75 227.65 34.75L227.65 34.75L213.90 34.75L213.90 34.75Q214.25 37.74 215.72 39.09L215.72 39.09L215.72 39.09Q217.19 40.43 219.51 40.43L219.51 40.43L219.51 40.43Q220.75 40.43 221.65 40.13L221.65 40.13L221.65 40.13Q222.55 39.84 223.25 39.47L223.25 39.47L223.25 39.47Q223.95 39.10 224.54 38.80L224.54 38.80L224.54 38.80Q225.12 38.50 225.77 38.50L225.77 38.50L225.77 38.50Q226.62 38.50 227.06 39.12L227.06 39.12L229.13 41.68L229.13 41.68Q228.02 42.94 226.75 43.73L226.75 43.73L226.75 43.73Q225.47 44.53 224.12 44.98L224.12 44.98L224.12 44.98Q222.78 45.43 221.43 45.60L221.43 45.60L221.43 45.60Q220.09 45.77 218.87 45.77L218.87 45.77L218.87 45.77Q216.36 45.77 214.16 44.95L214.16 44.95L214.16 44.95Q211.97 44.14 210.32 42.53L210.32 42.53L210.32 42.53Q208.68 40.92 207.72 38.52L207.72 38.52L207.72 38.52Q206.77 36.13 206.77 32.96L206.77 32.96L206.77 32.96Q206.77 30.57 207.59 28.43L207.59 28.43L207.59 28.43Q208.40 26.29 209.93 24.68L209.93 24.68L209.93 24.68Q211.46 23.07 213.64 22.13L213.64 22.13L213.64 22.13Q215.81 21.18 218.55 21.18ZM218.68 26.11L218.68 26.11L218.68 26.11Q216.64 26.11 215.49 27.27L215.49 27.27L215.49 27.27Q214.34 28.43 213.97 30.61L213.97 30.61L222.87 30.61L222.87 30.61Q222.87 29.76 222.65 28.96L222.65 28.96L222.65 28.96Q222.43 28.15 221.94 27.52L221.94 27.52L221.94 27.52Q221.44 26.89 220.64 26.50L220.64 26.50L220.64 26.50Q219.83 26.11 218.68 26.11ZM252.45 24.70L250.56 27.21L250.56 27.21Q250.24 27.60 249.94 27.83L249.94 27.83L249.94 27.83Q249.64 28.06 249.09 28.06L249.09 28.06L249.09 28.06Q248.56 28.06 248.14 27.81L248.14 27.81L248.14 27.81Q247.71 27.55 247.18 27.24L247.18 27.24L247.18 27.24Q246.65 26.93 245.94 26.68L245.94 26.68L245.94 26.68Q245.23 26.43 244.17 26.43L244.17 26.43L244.17 26.43Q242.86 26.43 241.90 26.91L241.90 26.91L241.90 26.91Q240.95 27.39 240.33 28.29L240.33 28.29L240.33 28.29Q239.71 29.19 239.41 30.49L239.41 30.49L239.41 30.49Q239.11 31.79 239.11 33.42L239.11 33.42L239.11 33.42Q239.11 36.85 240.43 38.69L240.43 38.69L240.43 38.69Q241.75 40.53 244.08 40.53L244.08 40.53L244.08 40.53Q245.32 40.53 246.04 40.22L246.04 40.22L246.04 40.22Q246.77 39.91 247.27 39.53L247.27 39.53L247.27 39.53Q247.78 39.15 248.20 38.82L248.20 38.82L248.20 38.82Q248.63 38.50 249.27 38.50L249.27 38.50L249.27 38.50Q250.13 38.50 250.56 39.12L250.56 39.12L252.63 41.68L252.63 41.68Q251.53 42.94 250.31 43.73L250.31 43.73L250.31 43.73Q249.09 44.53 247.81 44.98L247.81 44.98L247.81 44.98Q246.54 45.43 245.25 45.60L245.25 45.60L245.25 45.60Q243.96 45.77 242.74 45.77L242.74 45.77L242.74 45.77Q240.56 45.77 238.57 44.94L238.57 44.94L238.57 44.94Q236.58 44.11 235.07 42.54L235.07 42.54L235.07 42.54Q233.57 40.96 232.68 38.66L232.68 38.66L232.68 38.66Q231.79 36.36 231.79 33.42L231.79 33.42L231.79 33.42Q231.79 30.84 232.56 28.60L232.56 28.60L232.56 28.60Q233.34 26.36 234.84 24.71L234.84 24.71L234.84 24.71Q236.35 23.07 238.57 22.13L238.57 22.13L238.57 22.13Q240.79 21.18 243.71 21.18L243.71 21.18L243.71 21.18Q246.51 21.18 248.63 22.08L248.63 22.08L248.63 22.08Q250.75 22.98 252.45 24.70L252.45 24.70ZM264.09 45.77L264.09 45.77L264.09 45.77Q262.38 45.77 261.08 45.28L261.08 45.28L261.08 45.28Q259.79 44.78 258.90 43.87L258.90 43.87L258.90 43.87Q258.01 42.96 257.55 41.68L257.55 41.68L257.55 41.68Q257.09 40.39 257.09 38.80L257.09 38.80L257.09 26.47L255.07 26.47L255.07 26.47Q254.52 26.47 254.13 26.12L254.13 26.12L254.13 26.12Q253.74 25.76 253.74 25.07L253.74 25.07L253.74 22.29L257.53 21.55L258.93 15.73L258.93 15.73Q259.21 14.63 260.50 14.63L260.50 14.63L264.22 14.63L264.22 21.60L270.02 21.60L270.02 26.47L264.22 26.47L264.22 38.32L264.22 38.32Q264.22 39.15 264.63 39.69L264.63 39.69L264.63 39.69Q265.03 40.23 265.79 40.23L265.79 40.23L265.79 40.23Q266.18 40.23 266.44 40.15L266.44 40.15L266.44 40.15Q266.71 40.07 266.90 39.96L266.90 39.96L266.90 39.96Q267.10 39.86 267.27 39.78L267.27 39.78L267.27 39.78Q267.44 39.70 267.67 39.70L267.67 39.70L267.67 39.70Q268.00 39.70 268.19 39.85L268.19 39.85L268.19 39.85Q268.39 40.00 268.59 40.32L268.59 40.32L270.76 43.70L270.76 43.70Q269.38 44.73 267.65 45.25L267.65 45.25L267.65 45.25Q265.93 45.77 264.09 45.77Z" transform="rotate(0 135.9799988269806 30.199999809265137)"></path><defs id="SvgjsDefs1010"></defs></svg></g></svg>